HIERARCHY
ROOT Hips
{
	OFFSET 0.000000 0.000000 0.000000 
	CHANNELS 6 Xposition Yposition Zposition Yrotation Zrotation Xrotation 
	JOINT Lumbar
	{
		OFFSET 0.000000 0.000000 0.000000 
		CHANNELS 3 Zrotation Xrotation Yrotation
		JOINT Neck
		{
			OFFSET 0.000000 0.445665 0.000000 
			CHANNELS 3 Zrotation Xrotation Yrotation
			End Site
			{
				OFFSET 0.000000 0.227535 0.000000 
			}
		}
		JOINT RightShoulder
		{
			OFFSET 0.019635 0.377685 0.194865 
			CHANNELS 3 Zrotation Xrotation Yrotation
			JOINT RightElbow
			{
				OFFSET 0.000000 -0.243375 0.000000 
				CHANNELS 2 Zrotation Yrotation
				JOINT RightWrist
				{
					OFFSET 0.000000 -0.264825 0.000000 
					CHANNELS 2 Zrotation Xrotation
					End Site
					{
						OFFSET 0.006600 -0.176220 0.000990 
					}
				}
			}
		}
		JOINT LeftShoulder
		{
			OFFSET 0.019635 0.377685 -0.194865 
			CHANNELS 3 Zrotation Xrotation Yrotation
			JOINT LeftElbow
			{
				OFFSET 0.000000 -0.243375 0.000000 
				CHANNELS 2 Zrotation Yrotation
				JOINT LeftWrist
				{
					OFFSET 0.000000 -0.264825 0.000000 
					CHANNELS 2 Zrotation Xrotation
					End Site
					{
						OFFSET 0.006600 -0.176220 -0.000990 
					}
				}
			}
		}
	}
	JOINT RightHip
	{
		OFFSET 0.052140 -0.069960 0.075570 
		CHANNELS 3 Zrotation Xrotation Yrotation
		JOINT RightKnee
		{
			OFFSET 0.000000 -0.402270 0.000000 
			CHANNELS 1 Zrotation
			JOINT RightAnkle
			{
				OFFSET 0.000000 -0.404085 0.000000 
				CHANNELS 3 Zrotation Xrotation Yrotation
				End Site
				{
					OFFSET 0.204105 -0.089430 0.008415 
				}
			}
		}
	}
	JOINT LeftHip
	{
		OFFSET 0.052140 -0.069960 -0.075570 
		CHANNELS 3 Zrotation Xrotation Yrotation
		JOINT LeftKnee
		{
			OFFSET 0.000000 -0.402270 0.000000 
			CHANNELS 1 Zrotation
			JOINT LeftAnkle
			{
				OFFSET 0.000000 -0.404085 0.000000 
				CHANNELS 3 Zrotation Xrotation Yrotation
				End Site
				{
					OFFSET 0.204105 -0.089430 -0.008415 
				}
			}
		}
	}
}
MOTION
Frames: 25
Frame Time: 0.02
-0.83703 0.00513 1.30105 1050.58984 -37.32813 -7.36391 44.25487 5.64935 -3.47527 5.29799 0.59347 -0.83079 18.25535 7.17425 2.40334 137.62444 54.22737 10.89201 -12.88821 -16.08996 4.3779 -19.78823 124.60133 -111.58731 15.21644 -2.55966 44.8424 9.38425 -15.72412 -21.46334 -6.59641 -1.75831 -1.51498 59.79297 16.13896 -4.84457 -72.98252 -8.7555 2.89176 2.22737
-0.82768 0.00565 1.309 1051.63659 -37.27492 -6.71949 43.87916 5.48026 -2.66515 5.19305 0.05018 -0.83079 17.98214 6.81606 2.61256 137.62443 54.12622 10.79912 -13.05392 -16.38048 5.09885 -19.93265 124.52657 -107.80008 13.72868 -2.05264 43.57179 9.20868 -15.78252 -20.84112 -6.53193 -1.81176 -1.54226 61.67564 15.48325 -2.82671 -70.87219 -8.64756 3.00895 2.28661
-0.8179 0.00571 1.3167 1052.666 -37.26174 -6.08778 43.58111 5.29621 -1.95055 5.02622 -0.5079 -0.83079 17.86515 6.41136 2.70852 137.62442 54.03401 10.70538 -13.15252 -16.73475 5.98628 -20.08355 124.43746 -103.32882 11.9537 -1.45 42.40524 8.98694 -15.96521 -20.34914 -6.46341 -1.85148 -1.56194 63.22188 14.76653 -0.77485 -67.63421 -8.55788 3.10613 2.33518
-0.80825 0.00592 1.32454 1053.68738 -37.23209 -5.45813 43.25141 5.12207 -1.19188 4.89084 -1.0579 -0.83079 17.68292 6.0345 2.86009 137.62441 53.9376 10.61097 -13.27686 -17.06549 6.76703 -20.22402 124.36038 -99.2649 10.34055 -0.90444 41.19247 8.79492 -16.07601 -19.80066 -6.39741 -1.89886 -1.58585 64.89418 14.06616 1.20456 -64.85803 -8.46647 3.2103 2.3878
-0.79886 0.00636 1.33227 1054.77656 -37.19748 -4.79156 42.9055 4.9332 -0.43129 4.74056 -1.61595 -0.83079 17.47071 5.62561 3.00085 137.62439 53.84116 10.52191 -13.42296 -17.3765 7.69573 -20.40159 124.26021 -94.72143 8.56575 -0.29195 39.9823 8.56257 -16.25001 -19.24381 -6.33916 -1.94005 -1.60712 66.6778 13.40883 3.4314 -62.24866 -8.34702 3.32297 2.44355
-0.78882 0.00622 1.34017 1055.71899 -37.18232 -4.20668 42.61325 4.77159 0.30044 4.60686 -2.15955 -0.83079 17.35902 5.27414 3.13487 137.62438 53.74761 10.42185 -13.50703 -17.74227 8.34632 -20.49967 124.20444 -91.0548 7.07645 0.19821 38.78807 8.40461 -16.32129 -18.73338 -6.25081 -1.99134 -1.63144 68.15233 12.65347 5.15099 -59.05279 -8.28909 3.41266 2.48989
-0.77727 0.00463 1.34855 1056.27491 -37.20516 -3.8407 42.43677 4.69466 0.97998 4.53556 -2.66317 -0.83079 17.50298 5.08821 3.27491 137.62439 53.65413 10.28261 -13.43722 -18.24551 8.22641 -20.39821 124.27705 -89.81427 6.37364 0.35306 37.62024 8.4626 -16.09528 -18.32945 -6.1987 -2.06826 -1.67121 68.83043 11.59014 5.42729 -54.38409 -8.41359 3.45247 2.51847
-0.76505 0.00247 1.35709 1056.68126 -37.24703 -3.55759 42.31436 4.64485 1.63215 4.48322 -3.15073 -0.83079 17.74145 4.96261 3.4113 137.62441 53.56438 10.13343 -13.30653 -18.80011 7.81322 -20.21301 124.39407 -89.5137 5.98316 0.37652 36.46257 8.59738 -15.75947 -17.96572 -6.10021 -2.15644 -1.71351 69.21293 10.43965 5.1962 -49.19515 -8.59673 3.46868 2.53718
-0.75305 0.00053 1.36558 1057.14652 -37.28345 -3.23946 42.17552 4.57918 2.29382 4.42107 -3.64312 -0.83079 17.926 4.81318 3.55082 137.62442 53.47661 9.99486 -13.20333 -19.3305 7.50548 -20.05024 124.4897 -88.90351 5.50242 0.44107 35.29408 8.69837 -15.46277 -17.57639 -5.93776 -2.24358 -1.75095 69.74833 9.3638 5.21945 -44.33158 -8.74181 3.48977 2.55659
-0.7414 -0.00128 1.37401 1057.64891 -37.30719 -2.91083 42.00373 4.52804 2.96563 4.36069 -4.14677 -0.83079 18.15901 4.64835 3.68174 137.62443 53.37342 9.83191 -13.10012 -19.86999 7.31542 -19.94958 124.59136 -87.79118 4.79987 0.58418 34.15514 8.79424 -15.21378 -17.22186 -6.10984 -2.31458 -1.80296 70.19703 8.1395 5.1468 -39.04434 -8.93457 3.53356 2.59084
-0.72884 -0.00348 1.38258 1058.03933 -37.36212 -2.62324 41.914 4.4531 3.60982 4.30328 -4.62259 -0.83079 18.31548 4.52873 3.82933 137.62444 53.30342 9.71572 -12.98138 -20.39795 6.81577 -19.70476 124.6894 -87.93316 4.62875 0.53562 32.95616 8.91809 -14.84037 -16.8036 -5.60471 -2.42011 -1.8264 70.75623 7.20255 5.14912 -34.54107 -9.04307 3.5263 2.59289
-0.71415 -0.00659 1.39154 1058.15145 -37.4916 -2.43131 42.02428 4.30737 4.19561 4.23822 -5.02837 -0.83079 18.2037 4.53474 4.03982 137.62445 53.32178 9.745 -12.85069 -20.91479 5.46803 -19.03745 124.78173 -91.51969 5.92538 -0.04909 31.58579 9.11292 -14.12711 -16.19411 -2.97367 -2.63532 -1.76101 71.7298 7.09733 5.5157 -32.25009 -8.89292 3.37032 2.50041
-0.69854 -0.01007 1.40063 1058.1572 -37.65294 -2.27693 42.21772 4.1364 4.7532 4.17784 -5.40604 -0.83079 18.01754 4.58128 4.2648 137.62445 53.37397 9.81888 -12.70322 -21.41173 3.83005 -18.23625 124.86601 -96.29958 7.73346 -0.81535 30.15582 9.33054 -13.29604 -15.5215 0.29102 -2.882 -1.66844 72.8189 7.28133 5.96975 -30.78695 -8.65801 3.16617 2.37726
-0.68323 -0.01337 1.40965 1058.21546 -37.80396 -2.10404 42.381 3.97622 5.31651 4.12304 -5.79471 -0.83079 17.88629 4.5996 4.47317 137.62445 53.41196 9.86347 -12.55402 -21.89556 2.3667 -17.52575 124.94426 -100.39938 9.25834 -1.47343 28.7532 9.53055 -12.53361 -14.87809 3.08575 -3.10285 -1.59467 73.83343 7.32222 6.36069 -29.00264 -8.46945 2.99337 2.27363
-0.66837 -0.01673 1.41872 1058.25087 -37.93795 -1.94159 42.51256 3.82044 5.9077 4.03656 -6.19052 -0.83079 17.66774 4.66227 4.72355 137.62446 53.44447 9.94663 -12.44461 -22.47462 0.71297 -16.6864 125.06541 -105.11623 11.00739 -2.24448 27.34524 9.76639 -11.70408 -14.22562 6.63559 -3.37181 -1.49433 74.93332 7.4097 6.82887 -26.96611 -8.24995 2.78081 2.14667
-0.65236 -0.02004 1.42771 1058.31059 -38.11495 -1.76341 42.73101 3.64843 6.43584 4.01667 -6.56475 -0.83079 17.61408 4.64027 4.89009 137.62446 53.49719 9.95914 -12.24604 -22.85012 -0.60954 -16.0846 125.09413 -108.81521 12.40805 -2.82155 25.93994 9.9288 -10.98725 -13.58697 8.78116 -3.54906 -1.44214 75.88329 7.46949 7.16817 -25.6596 -8.07394 2.63867 2.06045
-0.63362 -0.02326 1.43651 1058.464 -38.39968 -1.54818 43.15249 3.44388 6.78465 4.18153 -6.88825 -0.83079 18.01784 4.38473 4.82098 137.62444 53.59006 9.77177 -11.83056 -22.66502 -0.943 -16.17344 124.87576 -109.43903 12.70737 -2.81902 24.50968 9.91022 -10.61473 -12.91744 6.73122 -3.45534 -1.5357 76.42013 7.38691 7.09297 -26.16043 -8.03871 2.71381 2.10039
-0.61373 -0.02639 1.44522 1058.64627 -38.7264 -1.31269 43.66057 3.22268 7.07287 4.4126 -7.19066 -0.83079 18.59351 4.04078 4.66769 137.62442 53.70312 9.50884 -11.32046 -22.27544 -0.93201 -16.50617 124.56421 -108.98647 12.63707 -2.6145 23.095 9.81159 -10.35914 -12.28344 3.27518 -3.27006 -1.67759 76.79663 7.2661 6.89469 -27.37025 -8.04969 2.85948 2.18127
-0.59423 -0.02947 1.45396 1058.81559 -39.03681 -1.07562 44.14064 3.00485 7.3976 4.61217 -7.50156 -0.83079 19.09936 3.72987 4.55263 137.6244 53.81225 9.27888 -10.83887 -21.9822 -1.07987 -16.72629 124.28987 -109.00534 12.74689 -2.50116 21.70113 9.73114 -10.04812 -11.68342 0.57091 -3.1332 -1.7932 77.23094 7.15999 6.77948 -28.26342 -8.03952 2.96581 2.23949
-0.57521 -0.03293 1.46276 1058.98006 -39.33953 -0.8847 44.57906 2.80352 7.6856 4.8186 -7.81628 -0.83079 19.5639 3.44901 4.43585 137.62438 53.90191 9.06376 -10.42229 -21.67652 -1.22948 -16.9487 124.0331 -109.14562 12.83365 -2.39584 20.17859 9.72788 -9.74378 -10.85362 -2.58245 -2.96863 -1.92574 77.73904 7.07493 6.55174 -29.16574 -8.0279 3.10145 2.31392
-0.55497 -0.03557 1.47141 1059.16332 -39.66421 -0.59331 45.11956 2.56465 8.03335 5.02549 -8.11817 -0.83079 20.1609 3.08596 4.30538 137.62436 54.03462 8.78977 -9.84247 -21.34515 -1.28832 -17.2266 123.72255 -108.75634 12.86121 -2.22471 18.93963 9.54515 -9.45336 -10.53168 -5.14866 -2.8397 -2.03528 78.04591 6.93352 6.52898 -30.20152 -8.0303 3.19315 2.36451
-0.53154 -0.03606 1.4797 1059.38804 -40.06996 -0.02171 45.95523 2.22282 8.58346 5.22563 -8.39162 -0.83079 21.03854 2.50151 4.13206 137.62436 54.29755 8.45723 -8.88803 -21.0225 -1.19362 -17.59198 123.24425 -107.21402 12.92701 -1.9105 18.38606 8.88147 -9.18745 -11.43018 -5.69921 -2.83095 -2.06594 77.90434 6.64188 7.09257 -31.47307 -8.06983 3.14916 2.34108
-0.50695 -0.03571 1.48783 1059.63152 -40.49051 0.64835 46.88337 1.84499 9.19104 5.42264 -8.65244 -0.83079 22.04925 1.84083 3.95213 137.62436 54.60033 8.05542 -7.76636 -20.67658 -1.01688 -18.00522 122.72254 -105.16664 12.92627 -1.53883 18.13558 8.04139 -8.93013 -12.86921 -5.62207 -2.86138 -2.07265 77.55261 6.29416 7.86625 -32.84227 -8.12058 3.0585 2.29219
-0.48297 -0.03566 1.49602 1059.86958 -40.88389 1.26938 47.74665 1.48537 9.75853 5.61541 -8.91827 -0.83079 23.03108 1.22458 3.79251 137.62436 54.87348 7.62453 -6.68203 -20.32074 -0.86611 -18.40299 122.24885 -103.3074 12.87578 -1.19873 17.80762 7.28439 -8.65891 -14.17728 -5.86957 -2.87383 -2.0927 77.25188 5.97324 8.5522 -34.13663 -8.16014 2.98722 2.2537
-0.45861 -0.03592 1.50429 1060.09682 -41.36482 1.91211 48.71108 1.11545 10.38566 5.83345 -9.18739 -0.83079 23.89657 0.5613 3.55874 137.62436 55.19421 7.43212 -5.74283 -20.04028 -0.74589 -18.78837 121.65412 -101.56387 13.13543 -0.82577 17.22399 6.50967 -8.43081 -15.01066 -6.00295 -2.883 -2.10376 77.13325 5.64557 9.20901 -35.58696 -8.22661 2.92502 2.22091
